# xmcd CD database file
#
# Track frame offsets:
#	150
#	1635
#	10140
#	36437
#	61165
#
# Disc length: 1082 seconds
#
# Revision: 0
# Processed by: cddbd v1.5.1PL0 Copyright (c) Steve Scherf et al.
# Submitted via: CDex 1.40Release
#
DISCID=2d043805
DTITLE=John Patrick Nieto - Poker Game of Life
DYEAR=1994
DGENRE=Blues
TTITLE0=Intro
TTITLE1=Strike Three
TTITLE2=Poker Game of Life
TTITLE3=Loyal To The High
TTITLE4=Love Is  Dangerous
EXTD=YEAR: 1994 ID3G: 0
EXTT0=
EXTT1=
EXTT2=
EXTT3=
EXTT4=
PLAYORDER=
